#tb 0: 100/2997
0,          0,          0,        1,  1036800, 0x2a90d062
0,          1,          1,        1,  1036800, 0x6565aded
0,          2,          2,        1,  1036800, 0xf0b587d2
0,          3,          3,        1,  1036800, 0xf0b4e53f
0,          4,          4,        1,  1036800, 0x5ba4b96a
0,          5,          5,        1,  1036800, 0x501df9c1
0,          6,          6,        1,  1036800, 0xcf45b940
0,          7,          7,        1,  1036800, 0xa454df07
0,          8,          8,        1,  1036800, 0xc504d152
0,          9,          9,        1,  1036800, 0xd90ecac7
0,         10,         10,        1,  1036800, 0xe30368df
0,         11,         11,        1,  1036800, 0x0ca35522
0,         12,         12,        1,  1036800, 0xe76b8d43
0,         13,         13,        1,  1036800, 0x7c85a447
0,         14,         14,        1,  1036800, 0x3e2d1b5f
0,         15,         15,        1,  1036800, 0x230fa5a6
0,         16,         16,        1,  1036800, 0x4fad025e
0,         17,         17,        1,  1036800, 0x7d3366ae
0,         18,         18,        1,  1036800, 0xa83720f7
0,         19,         19,        1,  1036800, 0x5dbd13b1
0,         20,         20,        1,  1036800, 0xd0ebd56d
0,         21,         21,        1,  1036800, 0x4d7c67f3
0,         22,         22,        1,  1036800, 0x226baa3f
0,         23,         23,        1,  1036800, 0xc0e93acf
0,         24,         24,        1,  1036800, 0x5a466c17
0,         25,         25,        1,  1036800, 0xfdb7d2ea
